# xmcd CD database file
#
# Track frame offsets:
#	187
#	15627
#	30752
#
# Disc length: 612 seconds
#
# Revision: 0
# Processed by: cddbd v1.5.1PL0 Copyright (c) Steve Scherf et al.
# Submitted via: CDex 1.51
#
DISCID=11026203
DTITLE=MANISH - 明日のStory
DYEAR=1900
DGENRE=Techno
TTITLE0=明日のStory
TTITLE1=ずっと見つめていたかった
TTITLE2=明日のStory(オリジナル・カラオケ)
EXTD=
EXTT0=
EXTT1=
EXTT2=
PLAYORDER=
